<svg width="53" height="37" viewBox="0 0 53 37" fill="none" xmlns="http://www.w3.org/2000/svg">
<path d="M26.4857 33.4284C23.8637 33.4316 21.3115 32.3739 19.2112 30.4138C17.1109 28.4537 15.5757 25.6967 14.8354 22.5556C14.0951 19.4146 14.1896 16.0586 15.1048 12.9903C16.0199 9.92192 17.7065 7.30638 19.9118 5.53536C22.1172 3.76434 24.7226 2.93316 27.338 3.16631C29.9533 3.39945 32.4378 4.68437 34.4193 6.82862C36.4009 8.97288 37.7728 11.8611 38.3296 15.0606C38.8865 18.2602 38.5983 21.5989 37.5082 24.5768C36.5486 27.221 34.998 29.4629 33.0426 31.0331C31.0873 32.6034 28.8105 33.4351 26.4857 33.4284ZM26.4682 5.61521C23.9672 5.61787 21.5553 6.77457 19.6957 8.86307C17.8362 10.9516 16.6604 13.8245 16.3941 16.9299C16.1278 20.0352 16.7899 23.1539 18.2531 25.6867C19.7163 28.2196 21.8775 29.9878 24.3213 30.6517C26.7651 31.3155 29.3192 30.8282 31.4928 29.2834C33.6664 27.7386 35.3061 25.2451 36.097 22.2823C36.8878 19.3194 36.7739 16.0961 35.7772 13.2317C34.7806 10.3673 32.9714 8.0639 30.6973 6.76406C29.3718 5.99881 27.9285 5.60424 26.4682 5.60791V5.61521Z" fill="black"/>
<path d="M18.1527 13.0516C17.4571 14.7913 17.1196 16.7199 17.1706 18.6633C17.2215 20.6068 17.6595 22.5037 18.4448 24.1827L25.0016 14.5397L18.1527 13.0516Z" fill="#006BCD"/>
<path d="M26.0328 6.5816C24.4529 6.69078 22.9206 7.29664 21.5783 8.34294C20.2359 9.38925 19.127 10.8421 18.3545 12.5666L28.3839 14.7549L26.0328 6.5816Z" fill="#006BCD"/>
<path d="M34.9347 23.4899C35.628 21.7501 35.9643 19.8224 35.9133 17.8801C35.8623 15.9378 35.4257 14.0418 34.6426 12.3624L28.0829 22.0018L34.9347 23.4899Z" fill="#006BCD"/>
<path d="M34.403 11.9101C33.7032 10.5556 32.7863 9.39672 31.7101 8.50662C30.6339 7.61653 29.4217 7.01448 28.1499 6.73844C27.5953 6.61922 27.0334 6.56064 26.4706 6.56337L29.9111 18.5078L34.403 11.9101Z" fill="#006BCD"/>
<path d="M18.6847 24.6498C19.3856 26.0005 20.3027 27.1557 21.3783 28.0425C22.4539 28.9294 23.6648 29.5289 24.9348 29.8032C25.525 29.9302 26.1235 29.9876 26.7223 29.9746L23.1679 18.0302L18.6847 24.6498Z" fill="#006BCD"/>
<path d="M27.1603 29.9525C28.7209 29.8217 30.2306 29.2065 31.5526 28.1626C32.8746 27.1188 33.9669 25.6793 34.7306 23.9748L24.7421 21.7865L27.1603 29.9525Z" fill="#006BCD"/>
<path d="M52 18.2051H51.9095C25.4398 -19.3606 2.58006 15.9402 1.09054 18.3437H1L1.04381 18.4021L1 18.475H1.09054C27.5602 56.0407 50.4199 20.7399 51.9095 18.3364H51.9883L51.9474 18.2744L52 18.2051ZM48.983 18.3328H48.9129C47.5899 20.4518 27.4346 51.5766 4.09879 18.4568H4.01701L4.05498 18.3948L4.01701 18.3437H4.0871C5.41015 16.2247 25.5654 -14.9001 48.9041 18.2197H48.983L48.945 18.2817C48.9592 18.2969 48.9719 18.314 48.983 18.3328Z" fill="black" stroke="black" stroke-miterlimit="10"/>
</svg>
